#define 1612752166307_width 12
#define 1612752166307_height 6
static char 1612752166307_bits[] = {
  0xFF, 0x07, 0x0F, 0x0C, 0x0F, 0x0C, 0x0F, 0x0C, 0x0F, 0x0C, 0xFF, 0x07, 
  };
