#define 1612752172723_width 12
#define 1612752172723_height 6
static char 1612752172723_bits[] = {
  0xFF, 0x07, 0x7F, 0x0C, 0x7F, 0x0C, 0x7F, 0x0C, 0x7F, 0x0C, 0xFF, 0x07, 
  };
