#define 1612752155809_width 12
#define 1612752155809_height 6
static char 1612752155809_bits[] = {
  0xFF, 0x07, 0x71, 0x0C, 0x41, 0x0C, 0x21, 0x0C, 0x21, 0x0C, 0xDF, 0x07, 
  };
