#define 1612752124396_width 12
#define 1612752124396_height 6
static char 1612752124396_bits[] = {
  0xFF, 0x07, 0x21, 0x0C, 0x21, 0x0C, 0x01, 0x0C, 0x21, 0x0C, 0xFF, 0x07, 
  };
