#define 1612793502618_width 15
#define 1612793502618_height 9
static char 1612793502618_bits[] = {
  0x06, 0x01, 0x0B, 0x45, 0x89, 0x6C, 0x85, 0x28, 0x89, 0x38, 0x53, 0x18, 
  0x4D, 0x08, 0x21, 0x0C, 0x21, 0x04, };
