#define 1614335073866_width 13
#define 1614335073866_height 12
static char 1614335073866_bits[] = {
  0x40, 0x00, 0xA0, 0x00, 0xA0, 0x00, 0x10, 0x01, 0x10, 0x01, 0x08, 0x02, 
  0x08, 0x02, 0x04, 0x04, 0x04, 0x04, 0x02, 0x08, 0x02, 0x08, 0xFF, 0x1F, 
  };
