#define 1613091268878_width 5
#define 1613091268878_height 5
static char 1613091268878_bits[] = {
  0x04, 0x04, 0x1F, 0x0E, 0x04, };
