#define 1613096482635_width 26
#define 1613096482635_height 20
static char 1613096482635_bits[] = {
  0x00, 0x03, 0x00, 0x00, 0x80, 0xF3, 0x26, 0x00, 0xC0, 0x92, 0x2A, 0x00, 
  0x60, 0x92, 0x2A, 0x00, 0x37, 0x92, 0x2A, 0x00, 0x1D, 0x92, 0x2A, 0x00, 
  0x09, 0xF2, 0x32, 0x00, 0x09, 0x02, 0x00, 0x00, 0x09, 0x02, 0x00, 0x00, 
  0x09, 0x02, 0x00, 0x00, 0x09, 0x02, 0x00, 0x00, 0x09, 0x02, 0x00, 0x00, 
  0x09, 0x02, 0x00, 0x00, 0x09, 0xF2, 0xDE, 0x03, 0x1D, 0x12, 0x52, 0x00, 
  0x37, 0x12, 0x52, 0x00, 0x60, 0xF2, 0xD2, 0x03, 0xC0, 0x82, 0x12, 0x02, 
  0x80, 0x83, 0x12, 0x02, 0x00, 0xF3, 0xDE, 0x03, };
