#define 1613096490124_width 23
#define 1613096490124_height 20
static char 1613096490124_bits[] = {
  0x00, 0x03, 0x00, 0x80, 0x03, 0x00, 0xC0, 0x02, 0x00, 0x60, 0x02, 0x00, 
  0x37, 0x02, 0x00, 0x1D, 0x02, 0x00, 0x09, 0x42, 0x40, 0x09, 0x82, 0x20, 
  0x09, 0x02, 0x11, 0x09, 0x02, 0x0A, 0x09, 0x02, 0x04, 0x09, 0x02, 0x0A, 
  0x09, 0x02, 0x11, 0x09, 0x82, 0x20, 0x1D, 0x42, 0x40, 0x37, 0x02, 0x00, 
  0x60, 0x02, 0x00, 0xC0, 0x02, 0x00, 0x80, 0x03, 0x00, 0x00, 0x03, 0x00, 
  };
