#define 1613096507721_width 21
#define 1613096507721_height 20
static char 1613096507721_bits[] = {
  0x00, 0x83, 0x00, 0x80, 0x03, 0x01, 0xC0, 0x02, 0x02, 0x60, 0x02, 0x04, 
  0x37, 0x12, 0x08, 0x1D, 0x22, 0x08, 0x09, 0x42, 0x10, 0x09, 0xC2, 0x10, 
  0x09, 0x82, 0x10, 0x09, 0x82, 0x10, 0x09, 0x82, 0x10, 0x09, 0x82, 0x10, 
  0x09, 0xC2, 0x10, 0x09, 0x42, 0x10, 0x1D, 0x22, 0x08, 0x37, 0x12, 0x08, 
  0x60, 0x02, 0x04, 0xC0, 0x02, 0x02, 0x80, 0x03, 0x01, 0x00, 0x83, 0x00, 
  };
