#define 1612752215116_width 13
#define 1612752215116_height 6
static char 1612752215116_bits[] = {
  0x04, 0x00, 0xB6, 0x1B, 0x97, 0x0A, 0xB7, 0x1A, 0xA6, 0x12, 0xB4, 0x1B, 
  };
