#define 1612797451775_width 60
#define 1612797451775_height 25
static char 1612797451775_bits[] = {
  0x00, 0x00, 0x00, 0x00, 0x00, 0x80, 0x18, 0x00, 0x00, 0x00, 0x1E, 0x00, 
  0x00, 0xC0, 0x18, 0x00, 0x00, 0x00, 0x7F, 0x00, 0x00, 0x40, 0x18, 0x00, 
  0x00, 0x80, 0x63, 0x00, 0x00, 0x40, 0x18, 0x00, 0x00, 0x80, 0x01, 0x00, 
  0x00, 0x20, 0x18, 0x00, 0x00, 0x80, 0x01, 0x00, 0x00, 0x20, 0x18, 0x00, 
  0x00, 0x80, 0x01, 0x0C, 0x0C, 0x30, 0xD8, 0x01, 0x03, 0x86, 0x01, 0x18, 
  0x06, 0x10, 0xF8, 0x03, 0x03, 0x86, 0x03, 0x18, 0x06, 0x18, 0x38, 0x06, 
  0x03, 0x06, 0x07, 0x18, 0x06, 0x08, 0x38, 0x06, 0x03, 0x06, 0x0E, 0x18, 
  0x06, 0x08, 0x18, 0x06, 0x03, 0x06, 0x18, 0x30, 0x03, 0x04, 0x18, 0x06, 
  0x03, 0x06, 0x70, 0x30, 0x03, 0x04, 0x18, 0x06, 0x03, 0x06, 0x60, 0x30, 
  0x03, 0x06, 0x18, 0x06, 0x03, 0x06, 0xE0, 0x30, 0x03, 0x02, 0x18, 0x06, 
  0x03, 0x06, 0xC0, 0x20, 0x01, 0x03, 0x18, 0x06, 0x03, 0x07, 0xC0, 0xE0, 
  0x01, 0x01, 0x18, 0x06, 0x87, 0xC7, 0xE0, 0xE0, 0x01, 0x01, 0x18, 0x06, 
  0xFF, 0xC6, 0x61, 0xE0, 0x81, 0x01, 0x18, 0x06, 0x7B, 0x86, 0x7F, 0xC0, 
  0x80, 0x00, 0x18, 0x06, 0x03, 0x00, 0x1E, 0xC0, 0xC0, 0x00, 0x18, 0x06, 
  0x03, 0x00, 0x00, 0x00, 0x40, 0x00, 0x00, 0x00, 0x03, 0x00, 0x00, 0x00, 
  0x00, 0x00, 0x00, 0x00, 0x03, 0x00, 0x00, 0x00, 0x00, 0x00, 0x00, 0x00, 
  0x03, 0x00, 0x00, 0x00, 0x00, 0x00, 0x00, 0x00, };
