#define 1612752222697_width 7
#define 1612752222697_height 6
static char 1612752222697_bits[] = {
  0x04, 0x56, 0x27, 0x27, 0x56, 0x04, };
