#define 1612752229427_width 7
#define 1612752229427_height 6
static char 1612752229427_bits[] = {
  0x24, 0x46, 0x57, 0x57, 0x46, 0x24, };
